<?xml version="1.0" encoding="UTF-8"?><svg xmlns="http://www.w3.org/2000/svg" xmlns:xlink="http://www.w3.org/1999/xlink" fill-opacity="1" color-rendering="auto" color-interpolation="auto" text-rendering="auto" stroke="black" stroke-linecap="square" width="284" stroke-miterlimit="10" shape-rendering="auto" stroke-opacity="1" fill="black" stroke-dasharray="none" font-weight="normal" stroke-width="1" height="336" font-family="'Dialog'" font-style="normal" stroke-linejoin="miter" font-size="12" stroke-dashoffset="0" image-rendering="auto">
  <!--Generated by ySVG 2.5-->
  <defs id="genericDefs"/>
  <g>
    <defs id="defs1">
      <clipPath clipPathUnits="userSpaceOnUse" id="clipPath1">
        <path d="M0 0 L284 0 L284 336 L0 336 L0 0 Z"/>
      </clipPath>
      <clipPath clipPathUnits="userSpaceOnUse" id="clipPath2">
        <path d="M13 57 L297 57 L297 393 L13 393 L13 57 Z"/>
      </clipPath>
    </defs>
    <g fill="white" text-rendering="geometricPrecision" shape-rendering="geometricPrecision" transform="translate(-13,-57)" stroke="white">
      <rect x="13" width="284" height="336" y="57" clip-path="url(#clipPath2)" stroke="none"/>
    </g>
    <g font-size="20" stroke-linecap="butt" transform="matrix(1,0,0,1,-13,-57)" text-rendering="geometricPrecision" font-family="'Droid Serif'" shape-rendering="geometricPrecision" font-style="italic" stroke-miterlimit="1.45">
      <text x="70.541" xml:space="preserve" y="108.9219" clip-path="url(#clipPath2)" stroke="none">x</text>
    </g>
    <g text-rendering="geometricPrecision" stroke-miterlimit="1.45" stroke-width="2" shape-rendering="geometricPrecision" transform="matrix(1,0,0,1,-13,-57)" stroke-linecap="butt">
      <circle fill="none" r="30" clip-path="url(#clipPath2)" cx="76" cy="102"/>
    </g>
    <g font-size="20" stroke-linecap="butt" transform="matrix(1,0,0,1,-13,-57)" text-rendering="geometricPrecision" font-family="'Droid Serif'" shape-rendering="geometricPrecision" font-style="italic" stroke-miterlimit="1.45">
      <text x="70.541" xml:space="preserve" y="190.9219" clip-path="url(#clipPath2)" stroke="none">x</text>
    </g>
    <g text-rendering="geometricPrecision" stroke-miterlimit="1.45" stroke-width="2" shape-rendering="geometricPrecision" transform="matrix(1,0,0,1,-13,-57)" stroke-linecap="butt">
      <circle fill="none" r="30" clip-path="url(#clipPath2)" cx="76" cy="184"/>
    </g>
    <g font-size="20" stroke-linecap="butt" transform="matrix(1,0,0,1,-13,-57)" text-rendering="geometricPrecision" font-family="'Droid Serif'" shape-rendering="geometricPrecision" font-style="italic" stroke-miterlimit="1.45">
      <text x="67.541" xml:space="preserve" y="272.9219" clip-path="url(#clipPath2)" stroke="none">x</text>
    </g>
    <g text-rendering="geometricPrecision" stroke-miterlimit="1.45" stroke-width="2" shape-rendering="geometricPrecision" transform="matrix(1,0,0,1,-13,-57)" stroke-linecap="butt">
      <circle fill="none" r="30" clip-path="url(#clipPath2)" cx="73" cy="266"/>
    </g>
    <g font-size="20" stroke-linecap="butt" transform="matrix(1,0,0,1,-13,-57)" text-rendering="geometricPrecision" font-family="'Droid Serif'" shape-rendering="geometricPrecision" font-style="italic" stroke-miterlimit="1.45">
      <text x="67.541" xml:space="preserve" y="354.9219" clip-path="url(#clipPath2)" stroke="none">x</text>
    </g>
    <g text-rendering="geometricPrecision" stroke-miterlimit="1.45" stroke-width="2" shape-rendering="geometricPrecision" transform="matrix(1,0,0,1,-13,-57)" stroke-linecap="butt">
      <circle fill="none" r="30" clip-path="url(#clipPath2)" cx="73" cy="348"/>
    </g>
    <g font-size="20" stroke-linecap="butt" transform="matrix(1,0,0,1,-13,-57)" text-rendering="geometricPrecision" font-family="'Droid Serif'" shape-rendering="geometricPrecision" font-style="italic" stroke-miterlimit="1.45">
      <text x="229.9502" xml:space="preserve" y="108.9219" clip-path="url(#clipPath2)" stroke="none">¬x</text>
    </g>
    <g text-rendering="geometricPrecision" stroke-miterlimit="1.45" stroke-width="2" shape-rendering="geometricPrecision" transform="matrix(1,0,0,1,-13,-57)" stroke-linecap="butt">
      <circle fill="none" r="30" clip-path="url(#clipPath2)" cx="241" cy="102"/>
    </g>
    <g font-size="20" stroke-linecap="butt" transform="matrix(1,0,0,1,-13,-57)" text-rendering="geometricPrecision" font-family="'Droid Serif'" shape-rendering="geometricPrecision" font-style="italic" stroke-miterlimit="1.45">
      <text x="229.9502" xml:space="preserve" y="190.9219" clip-path="url(#clipPath2)" stroke="none">¬x</text>
    </g>
    <g text-rendering="geometricPrecision" stroke-miterlimit="1.45" stroke-width="2" shape-rendering="geometricPrecision" transform="matrix(1,0,0,1,-13,-57)" stroke-linecap="butt">
      <circle fill="none" r="30" clip-path="url(#clipPath2)" cx="241" cy="184"/>
    </g>
    <g font-size="20" stroke-linecap="butt" transform="matrix(1,0,0,1,-13,-57)" text-rendering="geometricPrecision" font-family="'Droid Serif'" shape-rendering="geometricPrecision" font-style="italic" stroke-miterlimit="1.45">
      <text x="229.9502" xml:space="preserve" y="272.9219" clip-path="url(#clipPath2)" stroke="none">¬x</text>
    </g>
    <g text-rendering="geometricPrecision" stroke-miterlimit="1.45" stroke-width="2" shape-rendering="geometricPrecision" transform="matrix(1,0,0,1,-13,-57)" stroke-linecap="butt">
      <circle fill="none" r="30" clip-path="url(#clipPath2)" cx="241" cy="266"/>
    </g>
    <g font-size="20" stroke-linecap="butt" transform="matrix(1,0,0,1,-13,-57)" text-rendering="geometricPrecision" font-family="'Droid Serif'" shape-rendering="geometricPrecision" font-style="italic" stroke-miterlimit="1.45">
      <text x="229.9502" xml:space="preserve" y="354.9219" clip-path="url(#clipPath2)" stroke="none">¬x</text>
    </g>
    <g text-rendering="geometricPrecision" stroke-miterlimit="1.45" stroke-width="2" shape-rendering="geometricPrecision" transform="matrix(1,0,0,1,-13,-57)" stroke-linecap="butt">
      <circle fill="none" r="30" clip-path="url(#clipPath2)" cx="241" cy="348"/>
      <text x="83.0286" font-size="10" y="112.4609" clip-path="url(#clipPath2)" font-family="'Droid Serif'" stroke="none" stroke-width="1" xml:space="preserve">1</text>
      <text x="83.0478" font-size="10" y="196.7697" clip-path="url(#clipPath2)" font-family="'Droid Serif'" stroke="none" stroke-width="1" xml:space="preserve">2</text>
      <text x="80.219" font-size="10" y="278.6033" clip-path="url(#clipPath2)" font-family="'Droid Serif'" stroke="none" stroke-width="1" xml:space="preserve">3</text>
      <text x="79.4526" font-size="10" y="359.8609" clip-path="url(#clipPath2)" font-family="'Droid Serif'" stroke="none" stroke-width="1" xml:space="preserve">4</text>
      <text x="253.1854" font-size="10" y="112.6625" clip-path="url(#clipPath2)" font-family="'Droid Serif'" stroke="none" stroke-width="1" xml:space="preserve">1</text>
      <text x="253.2046" font-size="10" y="196.3816" clip-path="url(#clipPath2)" font-family="'Droid Serif'" stroke="none" stroke-width="1" xml:space="preserve">2</text>
      <text x="253.2046" font-size="10" y="278.1537" clip-path="url(#clipPath2)" font-family="'Droid Serif'" stroke="none" stroke-width="1" xml:space="preserve">3</text>
      <text x="253.2046" font-size="10" y="359.9233" clip-path="url(#clipPath2)" font-family="'Droid Serif'" stroke="none" stroke-width="1" xml:space="preserve">4</text>
      <path fill="none" d="M76 214 L76 236.166" stroke-width="4" clip-path="url(#clipPath2)"/>
      <path fill="none" d="M54.8189 205.2209 L47.658 214.2419 L41.0598 224.3746 L35.8863 234.5334 L32.1373 244.7182 L29.8129 254.9291 L28.9131 265.1661 L29.4379 275.4291 L31.3873 285.7182 L34.7613 296.0334 L39.5598 306.3746 L45.783 316.7419 L52.6092 326.0187" stroke-width="4" clip-path="url(#clipPath2)"/>
      <path fill="none" d="M73 296 L73 304.5 L73 318" stroke-width="4" clip-path="url(#clipPath2)"/>
    </g>
    <g text-rendering="geometricPrecision" stroke-miterlimit="1.45" shape-rendering="geometricPrecision" transform="matrix(1,0,0,1,-13,-57)" stroke-linecap="butt">
      <path fill="none" d="M106 100 L106 104 L211 104 L211 100 Z" clip-path="url(#clipPath2)"/>
    </g>
    <g text-rendering="geometricPrecision" stroke-miterlimit="1.45" shape-rendering="geometricPrecision" transform="matrix(1,0,0,1,-13,-57)" stroke-linecap="butt">
      <path fill="none" d="M106 182 L106 186 L211 186 L211 182 Z" clip-path="url(#clipPath2)"/>
    </g>
    <g text-rendering="geometricPrecision" stroke-miterlimit="1.45" stroke-width="4" shape-rendering="geometricPrecision" transform="matrix(1,0,0,1,-13,-57)" stroke-linecap="butt">
      <path fill="none" d="M241 132 L241 138 L241 154" clip-path="url(#clipPath2)"/>
    </g>
    <g text-rendering="geometricPrecision" stroke-miterlimit="1.45" shape-rendering="geometricPrecision" transform="matrix(1,0,0,1,-13,-57)" stroke-linecap="butt">
      <path fill="none" d="M103 264 L103 268 L211.0154 268 L211.0154 264 Z" clip-path="url(#clipPath2)"/>
    </g>
    <g text-rendering="geometricPrecision" stroke-miterlimit="1.45" stroke-width="4" shape-rendering="geometricPrecision" transform="matrix(1,0,0,1,-13,-57)" stroke-linecap="butt">
      <path fill="none" d="M260.5065 124.7822 L265.9844 132.75 L271.75 143 L276.2344 153.25 L279.4375 163.5 L281.3594 173.75 L282 184 L281.3594 194.25 L279.4375 204.5 L276.2344 214.75 L271.75 225 L265.9844 235.25 L260.5065 243.2178" clip-path="url(#clipPath2)"/>
      <path fill="none" d="M241 214 L241 236" clip-path="url(#clipPath2)"/>
    </g>
    <g text-rendering="geometricPrecision" stroke-miterlimit="1.45" shape-rendering="geometricPrecision" transform="matrix(1,0,0,1,-13,-57)" stroke-linecap="butt">
      <path fill="none" d="M103 346 L103 350 L211 350 L211 346 Z" clip-path="url(#clipPath2)"/>
    </g>
  </g>
</svg>
